<svg width="104" height="10" viewBox="0 0 104 10" fill="none" xmlns="http://www.w3.org/2000/svg">
<path d="M7.88762 3.80078C7.66496 1.95312 6.26652 0.890625 4.41496 0.890625C2.30168 0.890625 0.688396 2.38281 0.688396 5C0.688396 7.60938 2.27433 9.10937 4.41496 9.10937C6.46574 9.10937 7.70402 7.74609 7.88762 6.27344L6.17668 6.26562C6.01652 7.12109 5.34465 7.61328 4.4423 7.61328C3.22746 7.61328 2.40324 6.71094 2.40324 5C2.40324 3.33594 3.21574 2.38672 4.45402 2.38672C5.3798 2.38672 6.04777 2.92188 6.17668 3.80078H7.88762ZM11.649 9L12.2428 7.17578H15.1295L15.7232 9H17.5357L14.7779 1H12.5982L9.83652 9H11.649ZM12.6725 5.85547L13.6568 2.82812H13.7193L14.7037 5.85547H12.6725ZM19.8186 9H21.51V6.16406H22.7444L24.26 9H26.1272L24.428 5.89062C25.3382 5.5 25.8421 4.70703 25.8421 3.61328C25.8421 2.02344 24.7913 1 22.9749 1H19.8186V9ZM21.51 4.80469V2.38281H22.6507C23.6272 2.38281 24.0999 2.81641 24.0999 3.61328C24.0999 4.40625 23.6272 4.80469 22.6585 4.80469H21.51ZM28.3574 9H30.0488V6.16406H31.2832L32.7988 9H34.666L32.9668 5.89062C33.8769 5.5 34.3808 4.70703 34.3808 3.61328C34.3808 2.02344 33.33 1 31.5136 1H28.3574V9ZM30.0488 4.80469V2.38281H31.1894C32.166 2.38281 32.6386 2.81641 32.6386 3.61328C32.6386 4.40625 32.166 4.80469 31.1972 4.80469H30.0488ZM36.8961 9H42.3024V7.60547H38.5875V5.69531H42.0094V4.30078H38.5875V2.39453H42.2868V1H36.8961V9ZM50.2562 3.58594H51.9749C51.7562 2.00391 50.3616 0.890625 48.553 0.890625C46.4398 0.890625 44.8109 2.41406 44.8109 5.00781C44.8109 7.53906 46.3343 9.10937 48.5882 9.10937C50.6077 9.10937 52.0491 7.83203 52.0491 5.72656V4.71875H48.7015V5.99219H50.4202C50.3968 6.98437 49.721 7.61328 48.596 7.61328C47.3265 7.61328 46.5257 6.66406 46.5257 4.99219C46.5257 3.32812 47.3577 2.38672 48.5804 2.38672C49.4515 2.38672 50.0413 2.83594 50.2562 3.58594ZM55.7715 9L56.3652 7.17578H59.252L59.8457 9H61.6582L58.9004 1H56.7207L53.959 9H55.7715ZM56.7949 5.85547L57.7793 2.82812H57.8418L58.8262 5.85547H56.7949ZM70.6325 1H68.9489V6.03125H68.8786L65.4255 1H63.9411V9H65.6325V3.96484H65.6911L69.1716 9H70.6325V1ZM76.1859 9C78.6234 9 80.1 7.49219 80.1 4.99219C80.1 2.5 78.6234 1 76.2093 1H73.35V9H76.1859ZM75.0414 7.55078V2.44922H76.1195C77.6195 2.44922 78.4125 3.21484 78.4125 4.99219C78.4125 6.77734 77.6195 7.55078 76.1156 7.55078H75.0414ZM90.0244 5C90.0244 2.38281 88.3994 0.890625 86.2784 0.890625C84.1455 0.890625 82.5323 2.38281 82.5323 5C82.5323 7.60547 84.1455 9.10937 86.2784 9.10937C88.3994 9.10937 90.0244 7.61719 90.0244 5ZM88.3096 5C88.3096 6.69531 87.5049 7.61328 86.2784 7.61328C85.0479 7.61328 84.2471 6.69531 84.2471 5C84.2471 3.30469 85.0479 2.38672 86.2784 2.38672C87.5049 2.38672 88.3096 3.30469 88.3096 5ZM93.0339 9.10156C93.5339 9.10156 93.9675 8.68359 93.9714 8.16406C93.9675 7.65234 93.5339 7.23437 93.0339 7.23437C92.5183 7.23437 92.0925 7.65234 92.0964 8.16406C92.0925 8.68359 92.5183 9.10156 93.0339 9.10156ZM97.6303 9.10156C98.1303 9.10156 98.5639 8.68359 98.5678 8.16406C98.5639 7.65234 98.1303 7.23437 97.6303 7.23437C97.1147 7.23437 96.6889 7.65234 96.6928 8.16406C96.6889 8.68359 97.1147 9.10156 97.6303 9.10156ZM102.227 9.10156C102.727 9.10156 103.16 8.68359 103.164 8.16406C103.16 7.65234 102.727 7.23437 102.227 7.23437C101.711 7.23437 101.285 7.65234 101.289 8.16406C101.285 8.68359 101.711 9.10156 102.227 9.10156Z" fill="#282828"/>
</svg>
