<svg width="89" height="113" viewBox="0 0 89 113" fill="none" xmlns="http://www.w3.org/2000/svg">
<g filter="url(#filter0_f_1_3)">
<ellipse rx="27.5" ry="7.5" transform="matrix(1 0 0 -1 44.5 101.5)" fill="#707070" fill-opacity="0.3"/>
</g>
<path d="M89 55C89 66.6695 84.3116 77.8611 75.9663 86.1127C67.6209 94.3643 56.3021 99 44.5 99C32.6979 99 21.3791 94.3643 13.0338 86.1127C4.68838 77.8611 1.78207e-06 66.6695 0 55L44.5 55H89Z" fill="#F3F3F3"/>
<ellipse rx="44.5" ry="19" transform="matrix(1 0 0 -1 44.5 55)" fill="#5B5B5B"/>
<ellipse rx="28.5" ry="12.5" transform="matrix(1 0 0 -1 44.5 54.5)" fill="#242424"/>
<mask id="mask0_1_3" style="mask-type:alpha" maskUnits="userSpaceOnUse" x="27" y="0" width="36" height="64">
<path fill-rule="evenodd" clip-rule="evenodd" d="M62.4668 0H27.0007V55.2575C27.0003 55.2794 27.0001 55.3013 27.0001 55.3233C27.0001 59.6882 34.9394 63.2266 44.7331 63.2266C54.5269 63.2266 62.4662 59.6882 62.4662 55.3233C62.4662 55.3233 62.4662 55.3233 62.4662 55.3233H62.4668V0Z" fill="#C4C4C4"/>
</mask>
<g mask="url(#mask0_1_3)">
<ellipse cx="44.7331" cy="54.9939" rx="17.7331" ry="17.4532" fill="#FFC806"/>
<mask id="mask1_1_3" style="mask-type:alpha" maskUnits="userSpaceOnUse" x="20" y="14" width="49" height="48">
<path fill-rule="evenodd" clip-rule="evenodd" d="M63.4022 31.8469C66.1049 28.0626 69.2989 21.9866 68.9442 16.3743C68.8506 14.8919 67.4038 13.9344 66.008 14.4423C61.125 16.2192 57.8753 21.0053 56.0595 25.1176C54.0115 24.2606 51.6212 23.7975 48.8372 23.7975C43.1627 23.7975 38.5497 25.7004 35.0713 28.7035C32.7987 25.3589 28.2853 20.6322 22.9089 20.1281C21.4218 19.9886 20.3044 21.3627 20.6861 22.8129C22.0686 28.0652 26.9095 32.6776 30.1145 35.0028C28.2667 38.518 27.3184 42.512 27.3184 46.4491C27.3184 48.062 26.9874 49.1515 26.6991 50.1007C26.2991 51.4176 25.9812 52.4643 26.743 54.2638C28.4691 58.3411 38.0096 61.2858 47.8016 61.2858C61.7834 61.2858 65.4079 57.6616 67.7094 53.8108C69.4212 50.9466 68.336 47.9797 67.5698 45.885C67.3059 45.1634 67.0798 44.5454 67.0189 44.0706C66.4176 39.3819 65.3015 35.1872 63.4022 31.8469Z" fill="#FEDC08"/>
</mask>
<g mask="url(#mask1_1_3)">
<path fill-rule="evenodd" clip-rule="evenodd" d="M63.4022 31.8468C66.3817 27.675 69.9583 20.7181 68.7193 14.6676C68.62 14.1826 68.1497 13.8734 67.6647 13.973C61.8512 15.1668 58.0734 20.5566 56.0595 25.1176C54.0115 24.2606 51.6213 23.7975 48.8372 23.7975C42.9856 23.7975 38.3032 25.5432 34.8699 28.412C32.1605 24.552 26.6459 19.136 20.3084 20.2262C20.4608 26.4243 26.2196 32.1326 29.9495 34.8821C28.5195 37.9796 27.8604 41.5149 28.0088 45.2032C28.056 46.3751 27.8341 47.3142 27.6123 48.2534C27.2981 49.5833 26.9838 50.9133 27.4335 52.9047C28.4071 57.2166 38.5849 60.04 48.377 60.04C62.3588 60.04 67.134 55.5097 68.1697 51.7722C68.8871 49.1833 68.1725 47.3748 67.5866 45.8919L67.5866 45.8918C67.3266 45.2339 67.092 44.6401 67.019 44.0706C66.4177 39.3819 65.3015 35.1872 63.4022 31.8468Z" fill="#FFEC3D"/>
<ellipse cx="37.0998" cy="42.3718" rx="2.07133" ry="2.03864" fill="#0D0D0C"/>
<path d="M17.7674 18.6916L29.8308 20.7388C29.8308 20.7388 25.4514 21.0514 23.4481 23.3739C22.1394 25.5848 22.8339 29.6045 22.8339 29.6045L17.7674 18.6916Z" fill="#191919"/>
<path d="M67.5653 29.4952L72.516 13.26L61.7971 8.2326L54.9869 18.6806C54.9869 18.6806 61.6038 18.1787 65.1533 20.9754C67.6386 23.7654 67.5653 29.4952 67.5653 29.4952Z" fill="#191919"/>
<ellipse cx="55.972" cy="42.1452" rx="2.07133" ry="2.03864" fill="#0D0D0C"/>
<path d="M68.5407 50.0938C68.3212 52.2904 66.5308 53.915 64.5417 53.7224C62.5526 53.5299 61.5784 51.5931 61.7979 49.3965C62.0174 47.1999 63.8078 45.5753 65.7969 45.7678C67.786 45.9604 68.7602 47.8972 68.5407 50.0938Z" fill="#FC4012"/>
<path d="M27.1723 50.3714C27.3874 52.5233 29.0957 54.1193 30.9879 53.9361C32.8802 53.7529 33.7135 51.7077 33.4984 49.5558C33.2834 47.4039 31.7308 45.904 29.8385 46.0872C27.9462 46.2703 26.9573 48.2195 27.1723 50.3714Z" fill="#FC4012"/>
<path fill-rule="evenodd" clip-rule="evenodd" d="M44.0042 48.7142C44.3855 48.7142 44.6947 49.0184 44.6947 49.3937C44.6947 50.1288 44.893 50.6807 45.1678 51.0319C45.4338 51.3718 45.7836 51.5456 46.1906 51.5456C46.3006 51.5456 46.5983 51.4932 46.8492 51.3323C47.0521 51.202 47.2111 51.0176 47.3479 50.8208C47.6704 50.3569 48.1929 50.3345 48.493 50.8132C48.614 51.0062 48.7569 51.1863 48.9843 51.3323C49.2351 51.4932 49.5329 51.5456 49.6429 51.5456C49.9558 51.5456 50.2862 51.3539 50.5738 50.912C50.8593 50.4733 51.0237 49.8934 51.0237 49.3937C51.0237 49.0184 51.3329 48.7142 51.7142 48.7142C52.0955 48.7142 52.4046 49.0184 52.4046 49.3937C52.4046 50.145 52.1689 50.9808 51.7366 51.6451C51.3063 52.3062 50.601 52.9047 49.6429 52.9047C49.2925 52.9047 48.7272 52.7898 48.2301 52.4707C48.122 52.4014 48.0164 52.3216 47.9167 52.2309C47.817 52.3216 47.7114 52.4014 47.6034 52.4707C47.1063 52.7898 46.5409 52.9047 46.1906 52.9047C45.3266 52.9047 44.5832 52.5122 44.0737 51.8611C43.5731 51.2213 43.3138 50.3575 43.3138 49.3937C43.3138 49.0184 43.6229 48.7142 44.0042 48.7142Z" fill="black"/>
</g>
</g>
<mask id="mask2_1_3" style="mask-type:alpha" maskUnits="userSpaceOnUse" x="0" y="10" width="89" height="65">
<path d="M75.9662 23.6951C84.3798 31.9758 89 43.3144 89 54.994C89 65.5424 69.0767 74.0937 44.5 74.0937C19.9233 74.0937 0 65.5424 0 54.994C0 43.3144 4.6202 31.9758 13.0338 23.6951C21.3791 15.4814 32.6979 10.8671 44.5 10.8671C56.3021 10.8671 67.6209 15.4814 75.9662 23.6951Z" fill="#F22424"/>
</mask>
<g mask="url(#mask2_1_3)">
<path d="M75.9662 23.6951C84.3798 31.9758 89 43.3144 89 54.994C89 65.5424 69.0767 74.0937 44.5 74.0937C19.9233 74.0937 0 65.5424 0 54.994C0 43.3144 4.6202 31.9758 13.0338 23.6951C21.3791 15.4814 32.6979 10.8671 44.5 10.8671C56.3021 10.8671 67.6209 15.4814 75.9662 23.6951Z" fill="#F22424"/>
<path fill-rule="evenodd" clip-rule="evenodd" d="M-0.669159 52.8535C-0.669159 54.0693 0.460917 55.3953 2.17483 57.1345C3.90872 58.8939 11.0731 62.9876 14.7725 64.5754C22.1579 67.7453 32.6649 69.8127 44.5 69.8127C56.3352 69.8127 66.8421 67.7453 74.2276 64.5754C78.9404 62.5526 86.323 57.7387 89 53.3474C91.0075 50.0544 88.1635 44.4562 88.1635 44.4562L93.3496 50.713V54.994C93.3496 59.0524 91.415 62.578 88.6253 65.4089C85.8555 68.2196 82.0585 70.555 77.7049 72.4236C68.9846 76.1664 57.2415 78.3746 44.5 78.3746C31.7585 78.3746 20.0155 76.1664 11.2951 72.4236C6.94153 70.555 3.14452 68.2196 0.374767 65.4089C-2.41497 62.578 -4.34961 59.0524 -4.34961 54.994V50.713L-0.669159 52.8535Z" fill="#393939"/>
</g>
<ellipse cx="44.5" cy="73" rx="13.5" ry="13" fill="#393939"/>
<ellipse cx="44.5" cy="73" rx="9.5" ry="8" fill="#F3F3F3"/>
<defs>
<filter id="filter0_f_1_3" x="13" y="90" width="63" height="23" filterUnits="userSpaceOnUse" color-interpolation-filters="sRGB">
<feFlood flood-opacity="0" result="BackgroundImageFix"/>
<feBlend mode="normal" in="SourceGraphic" in2="BackgroundImageFix" result="shape"/>
<feGaussianBlur stdDeviation="2" result="effect1_foregroundBlur_1_3"/>
</filter>
</defs>
</svg>